
      <svg data-logo="logo" xmlns="http://www.w3.org/2000/svg" viewBox="0 0 125 28">
        <g id="logogram" transform="translate(0, 14) rotate(0) "></g>
        <g id="logotype" transform="translate(0, 1)"><path fill="#4ecdc4" d="M7.95 26L3.26 26L3.26 12.21L0.84 12.21L0.84 8.64L3.26 8.64L3.26 7.52Q3.26 5.24 4.01 3.58Q4.76 1.92 6.14 1.01Q7.53 0.10 9.38 0.10L9.38 0.10Q10.50 0.10 11.64 0.38Q12.78 0.66 13.90 1.18L13.90 1.18L12.95 4.72Q12.43 4.44 11.73 4.25Q11.03 4.05 10.40 4.05L10.40 4.05Q9.21 4.05 8.58 4.89Q7.95 5.73 7.95 7.34L7.95 7.34L7.95 8.64L12.43 8.64L12.43 12.21L7.95 12.21L7.95 26ZM13.41 20.57L13.41 20.57Q13.41 18.79 14.40 17.44Q15.40 16.09 17.19 15.36Q18.97 14.62 21.28 14.62L21.28 14.62Q22.44 14.62 23.63 14.80Q24.82 14.97 25.69 15.36L25.69 15.36L25.69 14.38Q25.69 12.63 24.66 11.68Q23.63 10.74 21.60 10.74L21.60 10.74Q20.09 10.74 18.73 11.26Q17.36 11.79 15.86 12.80L15.86 12.80L14.35 9.72Q16.17 8.53 18.08 7.94Q19.99 7.34 22.09 7.34L22.09 7.34Q26.01 7.34 28.19 9.30Q30.38 11.26 30.38 14.90L30.38 14.90L30.38 20.75Q30.38 21.48 30.64 21.80Q30.91 22.11 31.50 22.18L31.50 22.18L31.50 26Q30.87 26.11 30.36 26.18Q29.86 26.25 29.51 26.25L29.51 26.25Q28.11 26.25 27.39 25.61Q26.67 24.98 26.50 24.07L26.50 24.07L26.39 23.13Q25.20 24.67 23.42 25.51Q21.63 26.35 19.78 26.35L19.78 26.35Q17.96 26.35 16.50 25.60Q15.05 24.84 14.23 23.53Q13.41 22.22 13.41 20.57ZM24.82 21.52L24.82 21.52Q25.20 21.10 25.45 20.68Q25.69 20.26 25.69 19.91L25.69 19.91L25.69 18.05Q24.85 17.70 23.87 17.51Q22.89 17.32 22.02 17.32L22.02 17.32Q20.20 17.32 19.02 18.11Q17.85 18.89 17.85 20.19L17.85 20.19Q17.85 20.89 18.24 21.52Q18.62 22.15 19.36 22.54Q20.09 22.92 21.11 22.92L21.11 22.92Q22.16 22.92 23.17 22.52Q24.19 22.11 24.82 21.52ZM51.38 14.55L51.38 26L46.69 26L46.69 15.71Q46.69 13.50 45.92 12.49Q45.15 11.47 43.79 11.47L43.79 11.47Q42.84 11.47 41.88 11.96Q40.92 12.45 40.15 13.31Q39.38 14.17 39.03 15.29L39.03 15.29L39.03 26L34.34 26L34.34 7.66L38.57 7.66L38.57 11.05Q39.27 9.86 40.36 9.04Q41.44 8.22 42.86 7.78Q44.28 7.34 45.85 7.34L45.85 7.34Q47.57 7.34 48.67 7.96Q49.77 8.57 50.35 9.60Q50.93 10.63 51.15 11.93Q51.38 13.22 51.38 14.55L51.38 14.55ZM59.75 26L55.05 26L55.05 7.66L59.75 7.66L59.75 26ZM59.75 5.10L55.05 5.10L55.05 0.45L59.75 0.45L59.75 5.10ZM92.05 14.55L92.05 26L87.36 26L87.36 15.71Q87.36 13.54 86.61 12.51Q85.86 11.47 84.53 11.47L84.53 11.47Q83.16 11.47 81.92 12.54Q80.67 13.61 80.15 15.32L80.15 15.32L80.15 26L75.46 26L75.46 15.71Q75.46 13.50 74.71 12.49Q73.95 11.47 72.63 11.47L72.63 11.47Q71.26 11.47 70.02 12.52Q68.77 13.57 68.25 15.29L68.25 15.29L68.25 26L63.56 26L63.56 7.66L67.80 7.66L67.80 11.05Q68.84 9.27 70.59 8.31Q72.34 7.34 74.62 7.34L74.62 7.34Q76.89 7.34 78.17 8.46Q79.45 9.58 79.80 11.23L79.80 11.23Q80.92 9.34 82.65 8.34Q84.38 7.34 86.56 7.34L86.56 7.34Q88.27 7.34 89.34 7.96Q90.41 8.57 91 9.60Q91.59 10.63 91.82 11.93Q92.05 13.22 92.05 14.55L92.05 14.55ZM94.46 20.57L94.46 20.57Q94.46 18.79 95.46 17.44Q96.46 16.09 98.24 15.36Q100.03 14.62 102.34 14.62L102.34 14.62Q103.49 14.62 104.68 14.80Q105.87 14.97 106.75 15.36L106.75 15.36L106.75 14.38Q106.75 12.63 105.72 11.68Q104.68 10.74 102.65 10.74L102.65 10.74Q101.15 10.74 99.78 11.26Q98.42 11.79 96.91 12.80L96.91 12.80L95.41 9.72Q97.23 8.53 99.14 7.94Q101.04 7.34 103.14 7.34L103.14 7.34Q107.06 7.34 109.25 9.30Q111.44 11.26 111.44 14.90L111.44 14.90L111.44 20.75Q111.44 21.48 111.70 21.80Q111.96 22.11 112.56 22.18L112.56 22.18L112.56 26Q111.93 26.11 111.42 26.18Q110.91 26.25 110.56 26.25L110.56 26.25Q109.16 26.25 108.45 25.61Q107.73 24.98 107.55 24.07L107.55 24.07L107.45 23.13Q106.26 24.67 104.47 25.51Q102.69 26.35 100.83 26.35L100.83 26.35Q99.01 26.35 97.56 25.60Q96.11 24.84 95.29 23.53Q94.46 22.22 94.46 20.57ZM105.87 21.52L105.87 21.52Q106.26 21.10 106.50 20.68Q106.75 20.26 106.75 19.91L106.75 19.91L106.75 18.05Q105.91 17.70 104.93 17.51Q103.95 17.32 103.07 17.32L103.07 17.32Q101.25 17.32 100.08 18.11Q98.91 18.89 98.91 20.19L98.91 20.19Q98.91 20.89 99.29 21.52Q99.68 22.15 100.41 22.54Q101.15 22.92 102.16 22.92L102.16 22.92Q103.21 22.92 104.23 22.52Q105.24 22.11 105.87 21.52ZM115.36 21.77L115.36 0.45L120.05 0.45L120.05 20.12Q120.05 21.38 120.47 21.82Q120.89 22.25 121.62 22.25L121.62 22.25Q122.18 22.25 122.78 22.11Q123.37 21.98 123.83 21.77L123.83 21.77L124.46 25.34Q123.51 25.79 122.25 26.04Q120.99 26.28 119.98 26.28L119.98 26.28Q117.77 26.28 116.57 25.11Q115.36 23.93 115.36 21.77L115.36 21.77Z"/></g>
        
      </svg>
    