
      <svg data-logo="logo" xmlns="http://www.w3.org/2000/svg" viewBox="0 0 136 31">
        <g id="logogram" transform="translate(0, 15.5) rotate(0) "></g>
        <g id="logotype" transform="translate(0, 1)"><path fill="#4ecdc4" d="M8.72 29L2.77 29L2.77 14.37L0.60 14.37L0.60 9.47L2.77 9.47L2.77 8.45Q2.77 6.46 3.52 5.09Q4.27 3.73 5.55 2.92Q6.83 2.12 8.44 1.82Q10.05 1.52 11.80 1.59L11.80 1.59L11.80 6.60Q11.17 6.56 10.43 6.69Q9.70 6.81 9.21 7.28Q8.72 7.75 8.72 8.80L8.72 8.80L8.72 9.47L11.94 9.47L11.94 14.37L8.72 14.37L8.72 29ZM20.76 29.25L20.76 29.25Q18.20 29.25 16.29 27.91Q14.39 26.59 13.35 24.33Q12.32 22.07 12.32 19.23L12.32 19.23Q12.32 16.43 13.35 14.16Q14.39 11.88 16.29 10.55Q18.20 9.22 20.76 9.22L20.76 9.22Q23.00 9.22 24.66 10.43Q26.32 11.64 26.99 13.81L26.99 13.81L26.99 9.47L32.90 9.47L32.90 29L30.00 29Q28.60 29 27.79 28.21Q26.99 27.43 26.99 26.02L26.99 26.02L26.99 24.70Q26.32 26.83 24.66 28.04Q23.00 29.25 20.76 29.25ZM22.68 24.06L22.68 24.06Q23.84 24.06 24.82 23.50Q25.80 22.95 26.39 21.86Q26.99 20.77 26.99 19.23L26.99 19.23Q26.99 17.73 26.39 16.64Q25.80 15.56 24.82 14.96Q23.84 14.37 22.68 14.37L22.68 14.37Q21.49 14.37 20.51 14.96Q19.53 15.56 18.95 16.64Q18.38 17.73 18.38 19.23L18.38 19.23Q18.38 20.77 18.95 21.86Q19.53 22.95 20.53 23.50Q21.53 24.06 22.68 24.06ZM41.97 29L36.05 29L36.05 9.47L41.97 9.47L41.97 13.63Q42.39 12.27 43.33 11.29Q44.28 10.31 45.52 9.77Q46.76 9.22 48.09 9.22L48.09 9.22Q50.33 9.22 51.98 10.24Q53.62 11.25 54.53 13.11Q55.44 14.96 55.44 17.52L55.44 17.52L55.44 29L49.53 29L49.53 18.46Q49.53 16.47 48.51 15.31Q47.50 14.16 45.78 14.16L45.78 14.16Q44.63 14.16 43.77 14.77Q42.91 15.38 42.44 16.43Q41.97 17.48 41.97 18.81L41.97 18.81L41.97 29ZM64.19 29L58.31 29L58.31 9.47L64.19 9.47L64.19 29ZM61.29 7.40L61.29 7.40Q59.57 7.40 58.49 6.42Q57.40 5.44 57.40 3.97L57.40 3.97Q57.40 2.47 58.49 1.47Q59.57 0.47 61.29 0.47L61.29 0.47Q62.97 0.47 64.05 1.47Q65.14 2.47 65.14 3.97L65.14 3.97Q65.14 5.44 64.05 6.42Q62.97 7.40 61.29 7.40ZM73.15 29L67.24 29L67.24 9.47L73.15 9.47L73.15 13.63Q73.57 12.27 74.50 11.29Q75.43 10.31 76.67 9.77Q77.91 9.22 79.21 9.22L79.21 9.22Q81.87 9.22 83.56 10.76Q85.26 12.30 85.65 15.03L85.65 15.03Q86.03 13.11 87.05 11.83Q88.06 10.55 89.48 9.89Q90.90 9.22 92.51 9.22L92.51 9.22Q96.11 9.22 98.09 11.43Q100.07 13.63 100.07 17.55L100.07 17.55L100.07 29L94.19 29L94.19 18.46Q94.19 16.47 93.15 15.31Q92.12 14.16 90.41 14.16L90.41 14.16Q88.69 14.16 87.66 15.49Q86.63 16.82 86.63 18.81L86.63 18.81L86.63 29L80.71 29L80.71 18.46Q80.71 16.47 79.70 15.31Q78.68 14.16 76.97 14.16L76.97 14.16Q75.81 14.16 74.97 14.77Q74.13 15.38 73.64 16.43Q73.15 17.48 73.15 18.81L73.15 18.81L73.15 29ZM110.29 29.25L110.29 29.25Q107.73 29.25 105.82 27.91Q103.92 26.59 102.88 24.33Q101.85 22.07 101.85 19.23L101.85 19.23Q101.85 16.43 102.88 14.16Q103.92 11.88 105.82 10.55Q107.73 9.22 110.29 9.22L110.29 9.22Q112.53 9.22 114.19 10.43Q115.85 11.64 116.52 13.81L116.52 13.81L116.52 9.47L122.43 9.47L122.43 29L119.53 29Q118.13 29 117.32 28.21Q116.52 27.43 116.52 26.02L116.52 26.02L116.52 24.70Q115.85 26.83 114.19 28.04Q112.53 29.25 110.29 29.25ZM112.21 24.06L112.21 24.06Q113.37 24.06 114.35 23.50Q115.33 22.95 115.92 21.86Q116.52 20.77 116.52 19.23L116.52 19.23Q116.52 17.73 115.92 16.64Q115.33 15.56 114.35 14.96Q113.37 14.37 112.21 14.37L112.21 14.37Q111.02 14.37 110.04 14.96Q109.06 15.56 108.48 16.64Q107.91 17.73 107.91 19.23L107.91 19.23Q107.91 20.77 108.48 21.86Q109.06 22.95 110.06 23.50Q111.06 24.06 112.21 24.06ZM125.58 22.95L125.58 22.95L125.58 3.10L131.50 3.10L131.50 22.66Q131.50 23.43 131.97 23.82Q132.44 24.20 133.07 24.20L133.07 24.20Q133.49 24.20 133.88 24.06L133.88 24.06L134.82 28.61Q133.42 29.25 131.67 29.25L131.67 29.25Q130.20 29.25 128.80 28.65Q127.40 28.05 126.49 26.67Q125.58 25.29 125.58 22.95Z"/></g>
        
      </svg>
    