
      <svg data-logo="logo" xmlns="http://www.w3.org/2000/svg" viewBox="0 0 147 44">
        <g id="logogram" transform="translate(0, 22) rotate(0) "></g>
        <g id="logotype" transform="translate(0, 1)"><path fill="#4ecdc4" d="M11.03 42L3.15 42L3.15 18.90L0.35 18.90L0.35 11.55L5.74 11.55L5.74 10.99Q5.04 10.71 4.43 10.24Q3.82 9.76 3.40 9.27L3.40 9.27Q2.45 8.19 2.10 6.79L2.10 6.79Q2.00 6.44 1.96 6.07Q1.93 5.70 1.93 5.32L1.93 5.32Q1.93 4.02 2.33 3.22Q2.73 2.41 3.15 1.96L3.15 1.96Q3.75 1.29 4.62 0.87Q5.50 0.45 6.65 0.21L6.65 0.21Q7.21 0.10 7.84 0.05Q8.47-0.00 9.17-0.00L9.17-0.00L17.15-0.00L16.80 7.52L11.73 7.52Q10.99 7.52 10.54 7.84L10.54 7.84Q10.26 8.05 10.12 8.26Q9.98 8.47 9.87 8.82L9.87 8.82Q9.77 9.10 9.77 9.52L9.77 9.52Q9.77 10.29 10.12 10.74L10.12 10.74Q10.47 11.27 11.06 11.44L11.06 11.44Q11.31 11.55 11.73 11.55L11.73 11.55L16.80 11.55L16.80 18.90L11.03 18.90L11.03 42ZM18.20 34.09L18.20 34.09Q18.20 32.27 18.69 30.75Q19.18 29.23 20.23 28L20.23 28Q21.28 26.77 22.84 25.92Q24.40 25.06 26.53 24.43L26.53 24.43Q27.62 24.11 28.84 23.89Q30.07 23.66 31.43 23.48L31.43 23.48L31.43 21.17Q31.43 20.82 31.31 20.39Q31.19 19.95 31.01 19.70L31.01 19.70Q30.80 19.42 30.56 19.20Q30.31 18.97 29.89 18.83L29.89 18.83Q29.47 18.72 29.12 18.72L29.12 18.72Q28.81 18.72 28.37 18.83Q27.93 18.93 27.69 19.14L27.69 19.14Q27.13 19.56 26.92 20.30L26.92 20.30Q26.78 20.72 26.78 21.07L26.78 21.07L26.78 21.87L19.08 21.87L19.08 19.81Q19.08 18.27 19.51 16.87Q19.95 15.47 20.79 14.42L20.79 14.42Q22.51 12.35 25.73 11.55L25.73 11.55Q26.50 11.37 27.39 11.29Q28.28 11.20 29.23 11.20L29.23 11.20Q34.02 11.20 36.68 13.47L36.68 13.47Q39.31 15.75 39.31 19.81L39.31 19.81L39.31 42L31.43 42Q31.43 41.69 31.50 41.25Q31.57 40.81 31.68 40.49L31.68 40.49Q31.82 40.11 31.97 39.74Q32.13 39.38 32.34 38.95L32.34 38.95Q32.52 38.64 32.83 38.26L32.83 38.26L32.41 37.91Q31.85 38.88 31.27 39.53Q30.70 40.18 30.03 40.70L30.03 40.70Q29.40 41.23 28.65 41.60Q27.90 41.97 26.95 42.14L26.95 42.14Q26.53 42.24 26.09 42.30Q25.66 42.35 25.20 42.35L25.20 42.35Q24.05 42.35 22.94 42.02Q21.84 41.69 20.86 40.88L20.86 40.88Q19.99 40.22 19.39 39.15Q18.80 38.08 18.52 36.85L18.52 36.85Q18.34 36.23 18.27 35.52Q18.20 34.83 18.20 34.09ZM26.25 32.90L26.25 32.90Q26.25 33.42 26.37 33.86Q26.50 34.30 26.67 34.51L26.67 34.51Q27.13 35.21 27.90 35.38L27.90 35.38Q28.32 35.52 28.70 35.52L28.70 35.52Q29.89 35.52 31.43 34.65L31.43 34.65L31.43 28.17Q30.38 28.52 29.54 28.88Q28.70 29.23 28.07 29.71L28.07 29.71Q27.51 30.13 27.07 30.63Q26.64 31.11 26.46 31.71L26.46 31.71Q26.25 32.34 26.25 32.90ZM42.81 42L42.81 11.55L50.68 11.55Q50.68 11.69 50.61 12.13Q50.54 12.56 50.44 12.81L50.44 12.81Q50.30 13.19 50.16 13.58Q50.02 13.96 49.74 14.49L49.74 14.49Q49.63 14.70 49.53 14.89Q49.42 15.08 49.28 15.29L49.28 15.29L49.70 15.64Q50.37 14.66 50.96 14.05Q51.56 13.44 52.29 12.84L52.29 12.84Q52.96 12.32 53.76 11.93Q54.57 11.55 55.34 11.37L55.34 11.37Q55.72 11.30 56.12 11.25Q56.53 11.20 56.95 11.20L56.95 11.20Q58.00 11.20 59.03 11.53Q60.06 11.86 60.83 12.53L60.83 12.53Q62.37 13.93 62.86 16.45L62.86 16.45Q62.97 17.08 63.04 17.78Q63.11 18.48 63.11 19.25L63.11 19.25L63.11 42L55.23 42L55.23 20.65Q55.23 20.23 55.16 20.00Q55.09 19.77 54.88 19.39L54.88 19.39Q54.74 19.18 54.46 19.00Q54.18 18.83 53.97 18.79L53.97 18.79Q53.62 18.72 53.34 18.72L53.34 18.72Q53.06 18.72 52.82 18.78Q52.57 18.83 52.29 18.90L52.29 18.90Q51.98 18.97 51.77 19.09Q51.56 19.21 51.21 19.39L51.21 19.39Q51.07 19.46 50.94 19.55Q50.82 19.63 50.68 19.74L50.68 19.74L50.68 42L42.81 42ZM74.48 42L66.61 42L66.61 11.55L74.48 11.55L74.48 42ZM66.19 4.86L66.19 4.86Q66.19 3.36 67.03 2.17L67.03 2.17Q67.38 1.61 67.95 1.19Q68.53 0.77 69.16 0.59L69.16 0.59Q69.83 0.38 70.56 0.38L70.56 0.38Q71.26 0.38 71.93 0.58Q72.59 0.77 73.19 1.19L73.19 1.19Q74.31 2.03 74.73 3.39L74.73 3.39Q74.94 4.09 74.94 4.86L74.94 4.86Q74.94 6.79 73.71 8.12L73.71 8.12Q72.48 9.45 70.56 9.45L70.56 9.45Q69.06 9.45 67.97 8.57L67.97 8.57Q67.41 8.15 67.03 7.61Q66.64 7.07 66.40 6.30L66.40 6.30Q66.19 5.63 66.19 4.86ZM88.76 18.72L88.76 18.72Q88.55 18.72 88.23 18.78Q87.92 18.83 87.64 18.90L87.64 18.90Q87.36 18.97 87.05 19.11Q86.73 19.25 86.45 19.39L86.45 19.39Q86.17 19.49 85.86 19.74L85.86 19.74L85.86 42L77.98 42L77.98 11.55L85.86 11.55Q85.86 11.97 85.77 12.27Q85.68 12.56 85.54 12.98L85.54 12.98Q85.37 13.54 85.26 13.77Q85.16 14.00 84.88 14.59L84.88 14.59Q84.77 14.77 84.67 14.96Q84.56 15.15 84.46 15.29L84.46 15.29L84.88 15.64Q85.37 14.91 86.12 14.14Q86.87 13.37 87.54 12.88L87.54 12.88Q88.34 12.32 89.09 11.95Q89.84 11.58 90.69 11.37L90.69 11.37Q91.07 11.30 91.47 11.25Q91.88 11.20 92.26 11.20L92.26 11.20Q92.79 11.20 93.33 11.32Q93.87 11.44 94.43 11.69L94.43 11.69Q94.96 11.97 95.39 12.34Q95.83 12.70 96.22 13.12L96.22 13.12Q96.39 13.37 96.56 13.61L96.56 13.61Q96.71 13.89 96.88 14.17L96.88 14.17Q97.48 13.65 98.26 13.14Q99.05 12.63 99.68 12.32L99.68 12.32Q100.34 11.97 101.15 11.69Q101.96 11.41 102.66 11.30L102.66 11.30Q103.04 11.27 103.41 11.23Q103.78 11.20 104.13 11.20L104.13 11.20Q105.46 11.20 106.42 11.57Q107.38 11.93 108.15 12.53L108.15 12.53Q108.92 13.16 109.48 14.14Q110.04 15.12 110.28 16.24L110.28 16.24Q110.56 17.50 110.56 18.90L110.56 18.90L110.56 42L102.69 42L102.69 20.65Q102.69 20.23 102.62 19.98Q102.55 19.74 102.38 19.42L102.38 19.42Q102.20 19.14 101.96 19.02Q101.71 18.90 101.50 18.79L101.50 18.79Q101.26 18.72 100.87 18.72L100.87 18.72Q99.26 18.72 97.86 20.12L97.86 20.12L97.86 42L90.69 42L90.69 20.65Q90.69 19.84 90.37 19.46L90.37 19.46Q90.09 19.18 89.93 19.06Q89.78 18.93 89.43 18.79L89.43 18.79Q89.18 18.72 88.76 18.72ZM113.19 34.09L113.19 34.09Q113.19 32.27 113.68 30.75Q114.17 29.23 115.22 28L115.22 28Q116.27 26.77 117.83 25.92Q119.38 25.06 121.52 24.43L121.52 24.43Q122.61 24.11 123.83 23.89Q125.06 23.66 126.42 23.48L126.42 23.48L126.42 21.17Q126.42 20.82 126.30 20.39Q126.17 19.95 126 19.70L126 19.70Q125.79 19.42 125.55 19.20Q125.30 18.97 124.88 18.83L124.88 18.83Q124.46 18.72 124.11 18.72L124.11 18.72Q123.80 18.72 123.36 18.83Q122.92 18.93 122.67 19.14L122.67 19.14Q122.11 19.56 121.91 20.30L121.91 20.30Q121.77 20.72 121.77 21.07L121.77 21.07L121.77 21.87L114.06 21.87L114.06 19.81Q114.06 18.27 114.50 16.87Q114.94 15.47 115.78 14.42L115.78 14.42Q117.50 12.35 120.72 11.55L120.72 11.55Q121.48 11.37 122.38 11.29Q123.27 11.20 124.22 11.20L124.22 11.20Q129.01 11.20 131.67 13.47L131.67 13.47Q134.29 15.75 134.29 19.81L134.29 19.81L134.29 42L126.42 42Q126.42 41.69 126.49 41.25Q126.56 40.81 126.66 40.49L126.66 40.49Q126.81 40.11 126.96 39.74Q127.12 39.38 127.33 38.95L127.33 38.95Q127.50 38.64 127.82 38.26L127.82 38.26L127.40 37.91Q126.84 38.88 126.26 39.53Q125.69 40.18 125.02 40.70L125.02 40.70Q124.39 41.23 123.64 41.60Q122.88 41.97 121.94 42.14L121.94 42.14Q121.52 42.24 121.08 42.30Q120.64 42.35 120.19 42.35L120.19 42.35Q119.03 42.35 117.93 42.02Q116.83 41.69 115.85 40.88L115.85 40.88Q114.97 40.22 114.38 39.15Q113.78 38.08 113.50 36.85L113.50 36.85Q113.33 36.23 113.26 35.52Q113.19 34.83 113.19 34.09ZM121.24 32.90L121.24 32.90Q121.24 33.42 121.36 33.86Q121.48 34.30 121.66 34.51L121.66 34.51Q122.11 35.21 122.88 35.38L122.88 35.38Q123.30 35.52 123.69 35.52L123.69 35.52Q124.88 35.52 126.42 34.65L126.42 34.65L126.42 28.17Q125.37 28.52 124.53 28.88Q123.69 29.23 123.06 29.71L123.06 29.71Q122.50 30.13 122.06 30.63Q121.63 31.11 121.45 31.71L121.45 31.71Q121.24 32.34 121.24 32.90ZM145.67-0.00L145.67 42L137.80 42L137.80-0.00L145.67-0.00Z"/></g>
        
      </svg>
    